<svg fill="#ffffff" width="20" height="20" viewBox="0 0 20 20" xmlns="http://www.w3.org/2000/svg"><path d="M10 0c5.523 0 10 4.477 10 10 0 2.48-.903 4.749-2.397 6.496l-.237.267-.245.258.275-.29-.325.341-.237.229-.2.182-.16.139c-1.744 1.483-4.004 2.378-6.473 2.378-2.648 0-5.056-1.029-6.845-2.71l-.277-.271-.122-.126-.152-.163c-1.617-1.777-2.604-4.138-2.604-6.73 0-5.523 4.477-10 10-10zm0 4.5c-1.933 0-3.5 1.567-3.5 3.5 0 1.132.54 2.172 1.438 2.828.347.253.234.797-.185.892-2.256.508-3.646 1.939-4.094 4.666 1.626 1.616 3.867 2.614 6.341 2.614 2.472 0 4.712-.997 6.338-2.61-.453-2.718-1.845-4.149-4.101-4.664-.419-.096-.53-.64-.183-.892.902-.655 1.445-1.699 1.445-2.834 0-1.933-1.567-3.5-3.5-3.5zm0-3.5c-4.971 0-9 4.029-9 9 0 2.048.684 3.936 1.836 5.448.547-2.211 1.756-3.627 3.56-4.354l.249-.095-.147-.173c-.533-.66-.875-1.463-.971-2.325l-.021-.26-.006-.241c0-2.485 2.015-4.5 4.5-4.5s4.5 2.015 4.5 4.5c0 .966-.307 1.881-.85 2.633l-.154.201-.151.174.273.106c1.79.733 2.994 2.146 3.543 4.339 1.153-1.512 1.839-3.402 1.839-5.452 0-4.971-4.029-9-9-9z" fill-rule="nonzero"></path></svg>