<svg fill="#20213a" width="20" height="20" viewBox="0 0 20 20" xmlns="http://www.w3.org/2000/svg"><path d="M9.984 4c2.406 0 5.503 1.646 9.291 4.938l.357.313c.413.366.451.998.085 1.412l-.085.085c-3.951 3.501-7.166 5.252-9.648 5.252-2.406 0-5.503-1.646-9.291-4.938l-.357-.313c-.413-.366-.451-.998-.085-1.412l.085-.085c3.951-3.501 7.166-5.252 9.648-5.252zm0 1c-2.109 0-5.018 1.549-8.643 4.7l-.342.299.35.308c3.505 3.046 6.34 4.592 8.428 4.688l.206.005c2.109 0 5.018-1.549 8.643-4.7l.341-.301-.349-.306c-3.505-3.046-6.34-4.592-8.428-4.688l-.206-.005zm.016 2c1.657 0 3 1.342 3 2.998 0 1.656-1.343 2.998-3 2.998s-3-1.342-3-2.998c0-1.656 1.343-2.998 3-2.998zm0 1c-1.105 0-2 .895-2 1.998s.895 1.998 2 1.998 2-.895 2-1.998-.895-1.998-2-1.998z" fill-rule="nonzero"></path></svg>