<svg xmlns="http://www.w3.org/2000/svg" width="512" height="512" viewBox="0 0 512 512">
  <g id="import" transform="translate(0 512) rotate(-90)">
    <path id="Path_1" data-name="Path 1" d="M32,512H480a32.012,32.012,0,0,0,32-32V192H448V448H64V64H320V0H32A31.971,31.971,0,0,0,0,32V480A31.991,31.991,0,0,0,32,512Z" fill="#20213a"/>
    <path id="Path_2" data-name="Path 2" d="M462.048,4.7l-169.7,169.7L258.4,140.448a16.009,16.009,0,0,0-16.768-3.712,16.265,16.265,0,0,0-5.856,3.744,15.66,15.66,0,0,0-4.608,9.856L219.84,274.784a16.048,16.048,0,0,0,17.376,17.376l124.448-11.328a16.023,16.023,0,0,0,9.888-27.264L337.6,219.648l169.7-169.7a16.011,16.011,0,0,0,0-22.624L484.672,4.7A15.953,15.953,0,0,0,462.048,4.7Z" fill="#20213a"/>
  </g>
</svg>
