<svg fill="#ffffff" width="20" height="20" viewBox="0 0 20 20" xmlns="http://www.w3.org/2000/svg"><path d="M11 0c2.209 0 4 1.791 4 4v4h2c1.105 0 2 .895 2 2v8c0 1.105-.895 2-2 2h-14c-1.105 0-2-.895-2-2v-8c0-1.105.895-2 2-2h2v-4c0-2.209 1.791-4 4-4h2zm6 9h-14c-.513 0-.936.386-.993.883l-.007.117v8c0 .513.386.936.883.993l.117.007h14c.513 0 .936-.386.993-.883l.007-.117v-8c0-.513-.386-.936-.883-.993l-.117-.007zm-7 3c.245 0 .45.177.492.41l.008.09v3c0 .276-.224.5-.5.5-.245 0-.45-.177-.492-.41l-.008-.09v-3c0-.276.224-.5.5-.5zm1-11h-2c-1.598 0-2.904 1.249-2.995 2.824l-.005.176v3.999h8v-3.999c0-1.598-1.249-2.904-2.824-2.995l-.176-.005z" fill-rule="nonzero"></path></svg>