<svg xmlns="http://www.w3.org/2000/svg" xmlns:xlink="http://www.w3.org/1999/xlink" width="21px" height="22px"> <path fill-rule="evenodd" fill="#20213a" d="M20.672,20.038 L15.497,14.593 C16.828,12.992 17.557,10.979 17.557,8.882 C17.557,3.985 13.618,0.000 8.777,0.000 C3.936,0.000 -0.002,3.985 -0.002,8.882 C-0.002,13.780 3.936,17.765 8.777,17.765 C10.595,17.765 12.326,17.210 13.807,16.158 L19.022,21.645 C19.240,21.874 19.533,22.000 19.847,22.000 C20.144,22.000 20.426,21.885 20.641,21.677 C21.096,21.234 21.110,20.499 20.672,20.038 ZM8.777,2.317 C12.355,2.317 15.266,5.262 15.266,8.882 C15.266,12.503 12.355,15.448 8.777,15.448 C5.199,15.448 2.288,12.503 2.288,8.882 C2.288,5.262 5.199,2.317 8.777,2.317 Z"></path></svg>